# xmcd
#
# Track frame offsets: 
#        150
#        12612
#        32037
#        57320
#        80571
#        90880
#        107310
#        121084
#        125362
#        136396
#        154607
#        164983
#        178425
#        203395
#
# Disc length: 2908 seconds
#
# Revision: 2
# Processed by: cddbd v1.5.2PL0 Copyright (c) Steve Scherf et al.
# Submitted via: ExactAudioCopy v0.99pb5
#
DISCID=b30b5a0e
DTITLE=Eric Clapton And The Yardbirds - New York City Blues
DYEAR=2004
DGENRE=Blues
TTITLE0=Good Morning Little Schoolgirl
TTITLE1=New York City Blues
TTITLE2=My Girl Sloopy
TTITLE3=23 Hours Too Long
TTITLE4=A Certain Girl
TTITLE5=I Ain't Done Wrong
TTITLE6=Jeff's Blues
TTITLE7=Slow Walk
TTITLE8=Heart Full Of Soul
TTITLE9=Mr.Downchild
TTITLE10=Honey In Your Hips
TTITLE11=Pretty Girl
TTITLE12=Smokestack Lightning
TTITLE13=Mister,You're A Better Man Than I
EXTD=
EXTT0=
EXTT1=
EXTT2=
EXTT3=
EXTT4=
EXTT5=
EXTT6=
EXTT7=
EXTT8=
EXTT9=
EXTT10=
EXTT11=
EXTT12=
EXTT13=
PLAYORDER=
